#N canvas 1238 143 548 416 10;
#X floatatom 51 54 5 0 1000 2 Param_1 - -;
#X obj 96 142 t b;
#X obj 51 197 pack i f;
#X obj 51 93 / 1000;
#X floatatom 159 54 5 0 1000 2 Param_2 - -;
#X obj 204 142 t b;
#X obj 159 197 pack i f;
#X obj 159 93 / 1000;
#X floatatom 267 54 5 0 1000 2 Param_3 - -;
#X obj 312 142 t b;
#X obj 267 197 pack i f;
#X obj 267 93 / 1000;
#X floatatom 373 55 5 0 1000 2 Param_4 - -;
#X obj 418 143 t b;
#X obj 373 198 pack i f;
#X obj 373 94 / 1000;
#X msg 51 227 send param \$2 \$1;
#X msg 159 227 send param \$2 \$1;
#X msg 267 227 send param \$2 \$1;
#X msg 373 228 send param \$2 \$1;
#X obj 291 348 netsend -u;
#X msg 32 304 connect localhost 9000;
#X obj 96 167 int 0;
#X obj 204 167 int 1;
#X obj 312 167 int 2;
#X obj 418 168 int 3;
#X obj 32 273 loadbang;
#X connect 0 0 3 0;
#X connect 1 0 2 0;
#X connect 1 0 22 0;
#X connect 2 0 16 0;
#X connect 3 0 1 0;
#X connect 3 0 2 0;
#X connect 4 0 7 0;
#X connect 5 0 6 0;
#X connect 5 0 23 0;
#X connect 6 0 17 0;
#X connect 7 0 5 0;
#X connect 7 0 6 0;
#X connect 8 0 11 0;
#X connect 9 0 10 0;
#X connect 9 0 24 0;
#X connect 10 0 18 0;
#X connect 11 0 9 0;
#X connect 11 0 10 0;
#X connect 12 0 15 0;
#X connect 13 0 14 0;
#X connect 13 0 25 0;
#X connect 14 0 19 0;
#X connect 15 0 13 0;
#X connect 15 0 14 0;
#X connect 16 0 20 0;
#X connect 17 0 20 0;
#X connect 18 0 20 0;
#X connect 19 0 20 0;
#X connect 21 0 20 0;
#X connect 22 0 2 1;
#X connect 23 0 6 1;
#X connect 24 0 10 1;
#X connect 25 0 14 1;
#X connect 26 0 21 0;
